<svg xmlns="http://www.w3.org/2000/svg">
  <defs>
    <!-- Pain -->
    <symbol id="i-duplicate" viewBox="0 0 24 24"><rect x="4" y="6" width="13" height="14" rx="1.5"/><rect x="7" y="3" width="13" height="14" rx="1.5"/></symbol>
    <symbol id="i-expand" viewBox="0 0 24 24"><path d="M3 12h18"/><polyline points="16 7 21 12 16 17"/><polyline points="8 7 3 12 8 17"/></symbol>
    <symbol id="i-question" viewBox="0 0 24 24"><path d="M14 3H6a2 2 0 0 0-2 2v14a2 2 0 0 0 2 2h12a2 2 0 0 0 2-2V9z"/><polyline points="14 3 14 9 20 9"/><path d="M10 13c0-1 .5-1.5 1.5-2 .8-.4 1.5-.9 1.5-2 0-1.1-.9-2-2-2s-2 .9-2 2"/><circle cx="11" cy="18" r=".5" fill="currentColor"/></symbol>
    <symbol id="i-text-vary" viewBox="0 0 24 24"><path d="M5 19V7l3-3 3 3v12"/><path d="M5 13h6"/><path d="M14 19v-8l3-3 3 3v8"/><path d="M14 15h6"/></symbol>
    <symbol id="i-overflow" viewBox="0 0 24 24"><rect x="3" y="4" width="18" height="13" rx="1.5"/><path d="M3 8h18"/><path d="M9 21h6"/><path d="M12 17v4"/><path d="M16 12l3 3-3 3" stroke-width="1.2"/></symbol>
    <symbol id="i-single-user" viewBox="0 0 24 24"><circle cx="12" cy="8" r="4"/><path d="M4 21c0-4.4 3.6-8 8-8s8 3.6 8 8"/></symbol>

    <!-- Deliverable -->
    <symbol id="i-ledger" viewBox="0 0 24 24"><path d="M5 4h12a2 2 0 0 1 2 2v14H7a2 2 0 0 1-2-2V4z"/><path d="M5 4v14a2 2 0 0 0 2 2"/><path d="M9 8h7"/><path d="M9 12h7"/><path d="M9 16h4"/></symbol>
    <symbol id="i-form" viewBox="0 0 24 24"><rect x="3" y="5" width="18" height="14" rx="2"/><path d="M7 10h6"/><path d="M7 14h10"/><circle cx="17" cy="10" r="1.2" fill="currentColor"/></symbol>
    <symbol id="i-views" viewBox="0 0 24 24"><rect x="3" y="3" width="8" height="8" rx="1"/><rect x="13" y="3" width="8" height="8" rx="1"/><rect x="3" y="13" width="8" height="8" rx="1"/><rect x="13" y="13" width="8" height="8" rx="1"/></symbol>
    <symbol id="i-dashboard" viewBox="0 0 24 24"><rect x="3" y="3" width="18" height="18" rx="2"/><line x1="8" y1="17" x2="8" y2="11"/><line x1="12" y1="17" x2="12" y2="7"/><line x1="16" y1="17" x2="16" y2="14"/></symbol>

    <!-- Pricing -->
    <symbol id="i-coin" viewBox="0 0 24 24"><circle cx="12" cy="12" r="9"/><path d="M14.8 9.3c-.5-.7-1.4-1.3-2.8-1.3-1.7 0-3 .9-3 2.2s1.4 1.8 3 2.1 3 .8 3 2.1-1.3 2.2-3 2.2c-1.4 0-2.4-.6-2.8-1.3"/><line x1="12" y1="6" x2="12" y2="8"/><line x1="12" y1="16.5" x2="12" y2="18"/></symbol>
    <symbol id="i-plus" viewBox="0 0 24 24"><circle cx="12" cy="12" r="9"/><line x1="12" y1="8" x2="12" y2="16"/><line x1="8" y1="12" x2="16" y2="12"/></symbol>
    <symbol id="i-sheets" viewBox="0 0 24 24"><rect x="3" y="3" width="18" height="18" rx="1.5"/><line x1="3" y1="9" x2="21" y2="9"/><line x1="9" y1="3" x2="9" y2="21"/></symbol>

    <!-- Fit -->
    <symbol id="i-check-circle" viewBox="0 0 24 24"><circle cx="12" cy="12" r="9"/><polyline points="8 12 11 15 16 9"/></symbol>
    <symbol id="i-info" viewBox="0 0 24 24"><circle cx="12" cy="12" r="9"/><line x1="12" y1="11" x2="12" y2="16"/><circle cx="12" cy="8" r=".7" fill="currentColor" stroke="none"/></symbol>

    <!-- Industries -->
    <symbol id="i-house" viewBox="0 0 24 24"><path d="M3 11l9-8 9 8"/><path d="M5 9v11h14V9"/><rect x="10" y="14" width="4" height="6"/></symbol>
    <symbol id="i-building" viewBox="0 0 24 24"><rect x="5" y="3" width="14" height="18" rx="1"/><line x1="9" y1="7" x2="9" y2="9"/><line x1="13" y1="7" x2="13" y2="9"/><line x1="9" y1="12" x2="9" y2="14"/><line x1="13" y1="12" x2="13" y2="14"/><path d="M10 21v-4h4v4"/></symbol>
    <symbol id="i-scissors" viewBox="0 0 24 24"><circle cx="6" cy="6" r="3"/><circle cx="6" cy="18" r="3"/><line x1="20" y1="4" x2="8.6" y2="15.4"/><line x1="15" y1="15" x2="20" y2="20"/><line x1="8.6" y1="8.6" x2="12" y2="12"/></symbol>
    <symbol id="i-medical" viewBox="0 0 24 24"><rect x="3" y="6" width="18" height="14" rx="2"/><line x1="3" y1="11" x2="21" y2="11"/><line x1="12" y1="6" x2="12" y2="3"/><line x1="9" y1="3" x2="15" y2="3"/><line x1="12" y1="14" x2="12" y2="18"/><line x1="10" y1="16" x2="14" y2="16"/></symbol>
    <symbol id="i-factory" viewBox="0 0 24 24"><path d="M3 21V11l5 3V11l5 3V8l8 5v8z"/><rect x="6" y="17" width="2" height="2"/><rect x="11" y="17" width="2" height="2"/><rect x="16" y="17" width="2" height="2"/></symbol>
    <symbol id="i-box" viewBox="0 0 24 24"><path d="M3 7l9-4 9 4v10l-9 4-9-4z"/><path d="M3 7l9 4 9-4"/><line x1="12" y1="11" x2="12" y2="21"/></symbol>
    <symbol id="i-scale" viewBox="0 0 24 24"><line x1="12" y1="3" x2="12" y2="21"/><line x1="6" y1="21" x2="18" y2="21"/><line x1="3" y1="6" x2="21" y2="6"/><path d="M6 6l-3 7h6z"/><path d="M18 6l-3 7h6z"/></symbol>
    <symbol id="i-cap" viewBox="0 0 24 24"><path d="M2 9l10-5 10 5-10 5z"/><path d="M6 11v5c0 1 3 2 6 2s6-1 6-2v-5"/><line x1="22" y1="9" x2="22" y2="13"/></symbol>
    <symbol id="i-cup" viewBox="0 0 24 24"><path d="M5 5h12v9a4 4 0 0 1-4 4H9a4 4 0 0 1-4-4z"/><path d="M17 8h2a2 2 0 0 1 2 2v1a2 2 0 0 1-2 2h-2"/><line x1="6" y1="22" x2="16" y2="22"/></symbol>
    <symbol id="i-handshake" viewBox="0 0 24 24"><path d="M3 13l4-4 4 4"/><path d="M13 7l4 4-4 4"/><path d="M7 13l4 4 4-4"/><path d="M11 13l4-4"/></symbol>
    <symbol id="i-truck" viewBox="0 0 24 24"><rect x="2" y="7" width="11" height="10" rx="1"/><path d="M13 10h5l3 4v3h-8z"/><circle cx="6" cy="18" r="2"/><circle cx="17" cy="18" r="2"/></symbol>
    <symbol id="i-dots" viewBox="0 0 24 24"><circle cx="6" cy="12" r="1.6" fill="currentColor"/><circle cx="12" cy="12" r="1.6" fill="currentColor"/><circle cx="18" cy="12" r="1.6" fill="currentColor"/></symbol>

    <!-- Process -->
    <symbol id="i-chat" viewBox="0 0 24 24"><path d="M4 6h16v11H8l-4 4z"/><line x1="8" y1="11" x2="16" y2="11"/></symbol>
    <symbol id="i-gear" viewBox="0 0 24 24"><circle cx="12" cy="12" r="3"/><path d="M12 2v3M12 19v3M4.2 4.2l2.1 2.1M17.7 17.7l2.1 2.1M2 12h3M19 12h3M4.2 19.8l2.1-2.1M17.7 6.3l2.1-2.1"/></symbol>
    <symbol id="i-wand" viewBox="0 0 24 24"><path d="M3 21l9-9"/><path d="M14 4l3 3-7 7-3-3z"/><path d="M16 2l1 2 2 1-2 1-1 2-1-2-2-1 2-1z"/></symbol>
    <symbol id="i-trend" viewBox="0 0 24 24"><polyline points="3 18 9 12 13 16 21 6"/><polyline points="15 6 21 6 21 12"/></symbol>
    <symbol id="i-package" viewBox="0 0 24 24"><path d="M3 7l9-4 9 4v10l-9 4-9-4z"/><polyline points="3 7 12 11 21 7"/><line x1="12" y1="11" x2="12" y2="21"/><polyline points="6 9 6 13"/></symbol>

    <!-- Concept (NEW) -->
    <symbol id="i-database" viewBox="0 0 24 24"><ellipse cx="12" cy="5" rx="8" ry="2.5"/><path d="M4 5v6c0 1.4 3.6 2.5 8 2.5s8-1.1 8-2.5V5"/><path d="M4 11v6c0 1.4 3.6 2.5 8 2.5s8-1.1 8-2.5v-6"/></symbol>
    <symbol id="i-suit" viewBox="0 0 24 24"><circle cx="12" cy="7" r="3"/><path d="M5 21c0-3.5 3-6 7-6s7 2.5 7 6"/><path d="M9 13l3 3 3-3"/></symbol>
    <symbol id="i-hardhat" viewBox="0 0 24 24"><path d="M4 18h16"/><path d="M5 18v-3c0-3 2-6 5-7"/><path d="M19 18v-3c0-3-2-6-5-7"/><rect x="10" y="6" width="4" height="3" rx="0.5"/><line x1="3" y1="20" x2="21" y2="20"/></symbol>
    <symbol id="i-calculator" viewBox="0 0 24 24"><rect x="5" y="3" width="14" height="18" rx="2"/><rect x="7" y="5" width="10" height="3"/><circle cx="9" cy="12" r="1" fill="currentColor" stroke="none"/><circle cx="12" cy="12" r="1" fill="currentColor" stroke="none"/><circle cx="15" cy="12" r="1" fill="currentColor" stroke="none"/><circle cx="9" cy="15" r="1" fill="currentColor" stroke="none"/><circle cx="12" cy="15" r="1" fill="currentColor" stroke="none"/><circle cx="15" cy="15" r="1" fill="currentColor" stroke="none"/><circle cx="9" cy="18" r="1" fill="currentColor" stroke="none"/><circle cx="12" cy="18" r="1" fill="currentColor" stroke="none"/><circle cx="15" cy="18" r="1" fill="currentColor" stroke="none"/></symbol>
    <symbol id="i-briefcase" viewBox="0 0 24 24"><rect x="3" y="7" width="18" height="13" rx="1.5"/><path d="M9 7V5a2 2 0 0 1 2-2h2a2 2 0 0 1 2 2v2"/><line x1="3" y1="13" x2="21" y2="13"/></symbol>
    <symbol id="i-target" viewBox="0 0 24 24"><circle cx="12" cy="12" r="9"/><circle cx="12" cy="12" r="5"/><circle cx="12" cy="12" r="1.5" fill="currentColor" stroke="none"/></symbol>

    <!-- Misc -->
    <symbol id="i-arrow-right" viewBox="0 0 24 24"><line x1="4" y1="12" x2="20" y2="12"/><polyline points="14 6 20 12 14 18"/></symbol>
    <symbol id="i-arrow-down" viewBox="0 0 24 24"><line x1="12" y1="4" x2="12" y2="20"/><polyline points="6 14 12 20 18 14"/></symbol>
    <symbol id="i-spark" viewBox="0 0 24 24"><path d="M12 3v4M12 17v4M3 12h4M17 12h4M5.6 5.6l2.8 2.8M15.6 15.6l2.8 2.8M5.6 18.4l2.8-2.8M15.6 8.4l2.8-2.8"/></symbol>
    <symbol id="i-warning" viewBox="0 0 24 24"><path d="M12 3l10 18H2z"/><line x1="12" y1="10" x2="12" y2="15"/><circle cx="12" cy="18" r=".7" fill="currentColor" stroke="none"/></symbol>
    <symbol id="i-quote" viewBox="0 0 24 24"><path d="M7 7h4v4H7zM7 11c0 3 2 5 4 5"/><path d="M14 7h4v4h-4zM14 11c0 3 2 5 4 5"/></symbol>
  </defs>
</svg>